[Header]
FileType HTR
DataType HTRS
FileVersion 1
NumSegments 64
NumFrames 4
DataFrameRate 24
EulerRotationOrder ZYX
CalibrationUnits mm
RotationUnits Degrees
GlobalAxisofGravity Y
BoneLengthAxis Y
ScaleFactor 1.0
[SegmentNames&Hierarchy]
Hips	GLOBAL
Spine	Hips
Spine1	Spine
Spine2	Spine1
Neck	Spine2
Head	Neck
LeftEye	Head
RightEye	Head
LeftShoulder	Spine2
LeftArm	LeftShoulder
LeftForeArm	LeftArm
LeftHand	LeftForeArm
LeftHandThumb1	LeftHand
LeftHandThumb2	LeftHandThumb1
LeftHandThumb3	LeftHandThumb2
LeftHandThumb4	LeftHandThumb3
LeftHandIndex1	LeftHand
LeftHandIndex2	LeftHandIndex1
LeftHandIndex3	LeftHandIndex2
LeftHandIndex4	LeftHandIndex3
LeftHandMiddle1	LeftHand
LeftHandMiddle2	LeftHandMiddle1
LeftHandMiddle3	LeftHandMiddle2
LeftHandMiddle4	LeftHandMiddle3
LeftHandRing1	LeftHand
LeftHandRing2	LeftHandRing1
LeftHandRing3	LeftHandRing2
LeftHandRing4	LeftHandRing3
LeftHandPinky1	LeftHand
LeftHandPinky2	LeftHandPinky1
LeftHandPinky3	LeftHandPinky2
LeftHandPinky4	LeftHandPinky3
RightShoulder	Spine2
RightArm	RightShoulder
RightForeArm	RightArm
RightHand	RightForeArm
RightHandPinky1	RightHand
RightHandPinky2	RightHandPinky1
RightHandPinky3	RightHandPinky2
RightHandPinky4	RightHandPinky3
RightHandRing1	RightHand
RightHandRing2	RightHandRing1
RightHandRing3	RightHandRing2
RightHandRing4	RightHandRing3
RightHandMiddle1	RightHand
RightHandMiddle2	RightHandMiddle1
RightHandMiddle3	RightHandMiddle2
RightHandMiddle4	RightHandMiddle3
RightHandIndex1	RightHand
RightHandIndex2	RightHandIndex1
RightHandIndex3	RightHandIndex2
RightHandIndex4	RightHandIndex3
RightHandThumb1	RightHand
RightHandThumb2	RightHandThumb1
RightHandThumb3	RightHandThumb2
RightHandThumb4	RightHandThumb3
LeftUpLeg	Hips
LeftLeg	LeftUpLeg
LeftFoot	LeftLeg
LeftToeBase	LeftFoot
RightUpLeg	Hips
RightLeg	RightUpLeg
RightFoot	RightLeg
RightToeBase	RightFoot
[BasePosition]
Hips	0	0	0	0	0	0	1
Spine	0	0	0	0	0	0	1
Spine1	0	0	0	0	0	0	1
Spine2	0	0	0	0	0	0	1
Neck	0	0	0	0	0	0	1
Head	0	0	0	0	0	0	1
LeftEye	0	0	0	0	0	0	1
RightEye	0	0	0	0	0	0	1
LeftShoulder	0	0	0	0	0	0	1
LeftArm	0	0	0	0	0	0	1
LeftForeArm	0	0	0	0	0	0	1
LeftHand	0	0	0	0	0	0	1
LeftHandThumb1	0	0	0	0	0	0	1
LeftHandThumb2	0	0	0	0	0	0	1
LeftHandThumb3	0	0	0	0	0	0	1
LeftHandThumb4	0	0	0	0	0	0	1
LeftHandIndex1	0	0	0	0	0	0	1
LeftHandIndex2	0	0	0	0	0	0	1
LeftHandIndex3	0	0	0	0	0	0	1
LeftHandIndex4	0	0	0	0	0	0	1
LeftHandMiddle1	0	0	0	0	0	0	1
LeftHandMiddle2	0	0	0	0	0	0	1
LeftHandMiddle3	0	0	0	0	0	0	1
LeftHandMiddle4	0	0	0	0	0	0	1
LeftHandRing1	0	0	0	0	0	0	1
LeftHandRing2	0	0	0	0	0	0	1
LeftHandRing3	0	0	0	0	0	0	1
LeftHandRing4	0	0	0	0	0	0	1
LeftHandPinky1	0	0	0	0	0	0	1
LeftHandPinky2	0	0	0	0	0	0	1
LeftHandPinky3	0	0	0	0	0	0	1
LeftHandPinky4	0	0	0	0	0	0	1
RightShoulder	0	0	0	0	0	0	1
RightArm	0	0	0	0	0	0	1
RightForeArm	0	0	0	0	0	0	1
RightHand	0	0	0	0	0	0	1
RightHandPinky1	0	0	0	0	0	0	1
RightHandPinky2	0	0	0	0	0	0	1
RightHandPinky3	0	0	0	0	0	0	1
RightHandPinky4	0	0	0	0	0	0	1
RightHandRing1	0	0	0	0	0	0	1
RightHandRing2	0	0	0	0	0	0	1
RightHandRing3	0	0	0	0	0	0	1
RightHandRing4	0	0	0	0	0	0	1
RightHandMiddle1	0	0	0	0	0	0	1
RightHandMiddle2	0	0	0	0	0	0	1
RightHandMiddle3	0	0	0	0	0	0	1
RightHandMiddle4	0	0	0	0	0	0	1
RightHandIndex1	0	0	0	0	0	0	1
RightHandIndex2	0	0	0	0	0	0	1
RightHandIndex3	0	0	0	0	0	0	1
RightHandIndex4	0	0	0	0	0	0	1
RightHandThumb1	0	0	0	0	0	0	1
RightHandThumb2	0	0	0	0	0	0	1
RightHandThumb3	0	0	0	0	0	0	1
RightHandThumb4	0	0	0	0	0	0	1
LeftUpLeg	0	0	0	0	0	0	1
LeftLeg	0	0	0	0	0	0	1
LeftFoot	0	0	0	0	0	0	1
LeftToeBase	0	0	0	0	0	0	1
RightUpLeg	0	0	0	0	0	0	1
RightLeg	0	0	0	0	0	0	1
RightFoot	0	0	0	0	0	0	1
RightToeBase	0	0	0	0	0	0	1
[Hips]
205	150.3504333	1003.297424	128.4462128	10.81968117	14.31386948	-5.512157917	1.0
206	204.8885345	992.8342285	115.6874237	9.760162354	11.33656979	-5.926846981	1.0
207	245.8699036	996.6027832	100.886467	5.77325964	9.406144142	-5.299206257	1.0
208	275.958374	1008.038696	89.53448486	3.067528009	9.046304703	-3.847193718	1.0
[Spine]
205	0	101.8159943	1.315000057	-0.8337631822	-5.092132568	5.883695126	1.0
206	0	101.8159943	1.315000057	0.5452013612	-4.553019524	8.749652863	1.0
207	0	101.8159943	1.315000057	5.103503227	-4.143192291	8.673969269	1.0
208	0	101.8159943	1.315000057	8.272027016	-3.633166313	6.008695126	1.0
[Spine1]
205	0	100.8349991	-10.00800037	1.157176256	-1.076323986	-0.6124554873	1.0
206	0	100.8349991	-10.00800037	1.298681259	-0.9293882251	0.08226272464	1.0
207	0	100.8349991	-10.00800037	2.513625622	-0.6960977912	0.8507256508	1.0
208	0	100.8349991	-10.00800037	3.447318316	-0.5111134648	1.294100881	1.0
[Spine2]
205	0	91	-13.73399925	1.099348068	-1.123643637	-0.6206514239	1.0
206	0	91	-13.73399925	1.248652577	-0.970076859	0.07677554339	1.0
207	0	91	-13.73399925	2.482036114	-0.7394372821	0.845122695	1.0
208	0	91	-13.73399925	3.430385828	-0.5222919583	1.285773635	1.0
[Neck]
205	0	166.7169952	-25.16200066	1.829046607	-41.6727066	-14.42702389	1.0
206	0	166.7169952	-25.16200066	1.029711604	-42.47134018	-17.95840645	1.0
207	0	166.7169952	-25.16200066	-3.771195412	-41.68370438	-17.14527893	1.0
208	0	166.7169952	-25.16200066	-8.239034653	-39.07953262	-15.52293587	1.0
[Head]
205	0	96.17900085	16.84999847	-5.100299358	-16.77922058	14.3905592	1.0
206	0	96.17900085	16.84999847	-6.490692139	-14.3585825	15.47089481	1.0
207	0	96.17900085	16.84999847	-6.505327702	-14.78429317	14.91904163	1.0
208	0	96.17900085	16.84999847	-4.549267769	-16.77524948	13.66975498	1.0
[LeftEye]
205	30.6760006	64.09500122	92.83599854	0	0	0	1.0
206	30.6760006	64.09500122	92.83599854	0	0	0	1.0
207	30.6760006	64.09500122	92.83599854	0	0	0	1.0
208	30.6760006	64.09500122	92.83599854	0	0	0	1.0
[RightEye]
205	-30.6760006	64.09500122	92.83499908	0	0	0	1.0
206	-30.6760006	64.09500122	92.83499908	0	0	0	1.0
207	-30.6760006	64.09500122	92.83499908	0	0	0	1.0
208	-30.6760006	64.09500122	92.83499908	0	0	0	1.0
[LeftShoulder]
205	45.70400238	109.4599991	-26.28000069	3.343937159	-16.60242462	-0.5774083734	1.0
206	45.70400238	109.4599991	-26.28000069	3.42890358	-16.40147781	-1.039057612	1.0
207	45.70400238	109.4599991	-26.28000069	3.529426813	-15.36980724	-1.702478409	1.0
208	45.70400238	109.4599991	-26.28000069	3.687911987	-13.21436787	-2.894620419	1.0
[LeftArm]
205	105.923996	-5.24600029	-22.32099915	44.48733902	41.16777802	-47.76205826	1.0
206	105.923996	-5.24600029	-22.32099915	41.94342804	37.62491608	-51.40129852	1.0
207	105.923996	-5.24600029	-22.32099915	41.22337723	32.76564026	-52.57114029	1.0
208	105.923996	-5.24600029	-22.32099915	42.73048401	30.33732605	-49.51455307	1.0
[LeftForeArm]
205	278.414978	-0.0009999999311	0	0.0004425048828	-92.59194183	-0.0006866455078	1.0
206	278.414978	-0.0009999999311	0	-4.277390326e-05	-86.52592468	-0.0001460129133	1.0
207	278.414978	-0.0009999999311	0	1.348971364e-05	-82.69551086	-0.0002102521685	1.0
208	278.414978	-0.0009999999311	0	5.856871576e-05	-84.85119629	-0.0002799137437	1.0
[LeftHand]
205	283.2879944	0	0	31.78274727	-32.50774765	-25.31838799	1.0
206	283.2879944	0	0	35.02520752	-38.18028259	-28.81574631	1.0
207	283.2879944	0	0	39.87631989	-42.42023087	-29.11856842	1.0
208	283.2879944	0	0	41.27264404	-40.91955566	-27.13663673	1.0
[LeftHandThumb1]
205	24.6609993	-15.75	26.8239994	-1.441470742	-8.319262505	8.65396595	1.0
206	24.6609993	-15.75	26.8239994	-1.441467762	-8.319263458	8.653961182	1.0
207	24.6609993	-15.75	26.8239994	-1.441471815	-8.319267273	8.653959274	1.0
208	24.6609993	-15.75	26.8239994	-1.441462278	-8.319262505	8.653964043	1.0
[LeftHandThumb2]
205	32.29800034	-18.64699936	18.64699936	-0.9986540079	48.0361557	-30.10185051	1.0
206	32.29800034	-18.64699936	18.64699936	-0.9985868931	48.03617477	-30.10181427	1.0
207	32.29800034	-18.64699936	18.64699936	-0.9985969663	48.03617096	-30.10180473	1.0
208	32.29800034	-18.64699936	18.64699936	-0.9986119866	48.03616333	-30.10181618	1.0
[LeftHandThumb3]
205	26.52600098	-15.31499958	15.31499958	7.52218008	50.02408218	24.3875885	1.0
206	26.52600098	-15.31499958	15.31499958	7.522166729	50.02408981	24.38757706	1.0
207	26.52600098	-15.31499958	15.31499958	7.522156715	50.02407837	24.38755798	1.0
208	26.52600098	-15.31499958	15.31499958	7.522166252	50.02407837	24.3875618	1.0
[LeftHandThumb4]
205	19.54599953	-11.28499985	11.28499985	0	0	0	1.0
206	19.54599953	-11.28499985	11.28499985	0	0	0	1.0
207	19.54599953	-11.28499985	11.28499985	0	0	0	1.0
208	19.54599953	-11.28499985	11.28499985	0	0	0	1.0
[LeftHandIndex1]
205	91.09299469	-5.170999527	22.60099792	-1.706927896	9.272168159	-79.12528992	1.0
206	91.09299469	-5.170999527	22.60099792	-1.706923962	9.272181511	-79.12529755	1.0
207	91.09299469	-5.170999527	22.60099792	-1.706920028	9.272183418	-79.12527466	1.0
208	91.09299469	-5.170999527	22.60099792	-1.706926346	9.272188187	-79.12527466	1.0
[LeftHandIndex2]
205	36.76399994	0	0	-5.084217548	5.778048038	-82.67964935	1.0
206	36.76399994	0	0	-5.08422327	5.778055191	-82.67964935	1.0
207	36.76399994	0	0	-5.084229946	5.778047562	-82.67964935	1.0
208	36.76399994	0	0	-5.084228516	5.778058529	-82.67962646	1.0
[LeftHandIndex3]
205	28.83100128	0	0	-6.449676991	5.791754246	-96.16446686	1.0
206	28.83100128	0	0	-6.449682713	5.791758537	-96.16448975	1.0
207	28.83100128	0	0	-6.449682236	5.791750908	-96.16448975	1.0
208	28.83100128	0	0	-6.449680328	5.791754723	-96.16448212	1.0
[LeftHandIndex4]
205	23.92700005	0	0	0	0	0	1.0
206	23.92700005	0	0	0	0	0	1.0
207	23.92700005	0	0	0	0	0	1.0
208	23.92700005	0	0	0	0	0	1.0
[LeftHandMiddle1]
205	95.33399963	0	0	-6.494748592	5.273254871	-74.30393982	1.0
206	95.33399963	0	0	-6.494748592	5.273252487	-74.30393219	1.0
207	95.33399963	0	0	-6.49476862	5.273247242	-74.30393219	1.0
208	95.33399963	0	0	-6.494761944	5.273258686	-74.30393982	1.0
[LeftHandMiddle2]
205	36.98199844	0	0	-7.583501339	5.554394245	-107.5965958	1.0
206	36.98199844	0	0	-7.583485126	5.554383755	-107.596611	1.0
207	36.98199844	0	0	-7.583507538	5.554386616	-107.5965958	1.0
208	36.98199844	0	0	-7.583499432	5.554384232	-107.5965881	1.0
[LeftHandMiddle3]
205	29.50900078	0	0	-4.044082642	5.547112465	-72.16720581	1.0
206	29.50900078	0	0	-4.044090748	5.547128201	-72.16722107	1.0
207	29.50900078	0	0	-4.044091225	5.547141552	-72.16721344	1.0
208	29.50900078	0	0	-4.044090271	5.547127724	-72.16719818	1.0
[LeftHandMiddle4]
205	28.3390007	0	0	0	0	0	1.0
206	28.3390007	0	0	0	0	0	1.0
207	28.3390007	0	0	0	0	0	1.0
208	28.3390007	0	0	0	0	0	1.0
[LeftHandRing1]
205	91.04499817	-0.4390000105	-18.65100098	-7.093583584	2.507938147	-79.76667023	1.0
206	91.04499817	-0.4390000105	-18.65100098	-7.093584538	2.507958651	-79.76668549	1.0
207	91.04499817	-0.4390000105	-18.65100098	-7.093602657	2.507943392	-79.76667023	1.0
208	91.04499817	-0.4390000105	-18.65100098	-7.093606472	2.507953167	-79.76667786	1.0
[LeftHandRing2]
205	31.54000092	0	0	-6.249156475	5.809817314	-94.18068695	1.0
206	31.54000092	0	0	-6.24915123	5.809823513	-94.18067932	1.0
207	31.54000092	0	0	-6.249159336	5.809820175	-94.18067932	1.0
208	31.54000092	0	0	-6.2491436	5.809818745	-94.18067932	1.0
[LeftHandRing3]
205	29.37700081	0	0	-2.898622036	5.038859367	-59.798069	1.0
206	29.37700081	0	0	-2.898616791	5.038865089	-59.79807663	1.0
207	29.37700081	0	0	-2.898623705	5.038864136	-59.79807663	1.0
208	29.37700081	0	0	-2.898627281	5.038862228	-59.79806519	1.0
[LeftHandRing4]
205	26.47500038	0	0	0	0	0	1.0
206	26.47500038	0	0	0	0	0	1.0
207	26.47500038	0	0	0	0	0	1.0
208	26.47500038	0	0	0	0	0	1.0
[LeftHandPinky1]
205	80.77799988	-4.887000084	-38.06099701	-15.74280167	5.236316204	-84.96305084	1.0
206	80.77799988	-4.887000084	-38.06099701	-15.74281406	5.236328602	-84.9630661	1.0
207	80.77799988	-4.887000084	-38.06099701	-15.74279976	5.236319065	-84.96305847	1.0
208	80.77799988	-4.887000084	-38.06099701	-15.7428112	5.236339092	-84.96305847	1.0
[LeftHandPinky2]
205	36	0	0	-2.465518236	4.761465549	-54.73119354	1.0
206	36	0	0	-2.465528727	4.761470795	-54.7312088	1.0
207	36	0	0	-2.465521812	4.761458874	-54.73119354	1.0
208	36	0	0	-2.465528965	4.761466503	-54.73119354	1.0
[LeftHandPinky3]
205	21.14200211	0	0	-4.92965889	5.756184101	-81.1413269	1.0
206	21.14200211	0	0	-4.929648876	5.756190777	-81.14135742	1.0
207	21.14200211	0	0	-4.929642677	5.75619936	-81.14134979	1.0
208	21.14200211	0	0	-4.929655075	5.756192684	-81.14134979	1.0
[LeftHandPinky4]
205	19.75699997	0	0	0	0	0	1.0
206	19.75699997	0	0	0	0	0	1.0
207	19.75699997	0	0	0	0	0	1.0
208	19.75699997	0	0	0	0	0	1.0
[RightShoulder]
205	-45.70000076	109.4620056	-26.28000069	2.943133354	0.5126298666	4.607291698	1.0
206	-45.70000076	109.4620056	-26.28000069	2.933158875	0.05281772092	5.050143242	1.0
207	-45.70000076	109.4620056	-26.28000069	2.927480459	-1.011011362	5.985154152	1.0
208	-45.70000076	109.4620056	-26.28000069	2.970696211	-0.882442534	6.758602619	1.0
[RightArm]
205	-105.9280014	-5.248000145	-22.32099915	56.34305954	-16.25272179	35.76587677	1.0
206	-105.9280014	-5.248000145	-22.32099915	56.82190704	-18.04847336	31.64471245	1.0
207	-105.9280014	-5.248000145	-22.32099915	51.35393143	-21.25621033	32.11540985	1.0
208	-105.9280014	-5.248000145	-22.32099915	43.19654083	-24.79647827	36.86111832	1.0
[RightForeArm]
205	-278.414978	0	0	0.001525878906	90.93243408	0.001403808594	1.0
206	-278.414978	0	0	-0.0001678405679	96.60781097	-0.0001525822154	1.0
207	-278.414978	0	0	-7.629342144e-05	98.15575409	-7.629353058e-05	1.0
208	-278.414978	0	0	-3.051757813e-05	95.51434326	-4.577636719e-05	1.0
[RightHand]
205	-283.2879944	0	0.0009999999311	25.15152931	29.16724968	35.18801117	1.0
206	-283.2879944	0	0.0009999999311	24.45723343	24.18391991	32.16696167	1.0
207	-283.2879944	0	0.0009999999311	31.86376762	21.95157051	34.84725571	1.0
208	-283.2879944	0	0.0009999999311	40.35841751	22.79822922	41.80092239	1.0
[RightHandPinky1]
205	-80.76699829	-4.885000229	-38.06000137	-14.51714993	-4.048332691	84.21437073	1.0
206	-80.76699829	-4.885000229	-38.06000137	-14.51716042	-4.048323631	84.21435547	1.0
207	-80.76699829	-4.885000229	-38.06000137	-14.51717567	-4.048326492	84.21434784	1.0
208	-80.76699829	-4.885000229	-38.06000137	-14.51718616	-4.048308372	84.2144165	1.0
[RightHandPinky2]
205	-36	0	0.0009999999311	-1.960818887	-3.784825087	54.78263855	1.0
206	-36	0	0.0009999999311	-1.960829496	-3.784829617	54.78262329	1.0
207	-36	0	0.0009999999311	-1.960844398	-3.784838438	54.78263855	1.0
208	-36	0	0.0009999999311	-1.960823774	-3.784817696	54.78261948	1.0
[RightHandPinky3]
205	-21.14200211	0	0	-3.919520378	-4.575714111	81.15795135	1.0
206	-21.14200211	0	0	-3.919514656	-4.575722218	81.15795135	1.0
207	-21.14200211	0	0	-3.919519663	-4.575716019	81.15795898	1.0
208	-21.14200211	0	0	-3.91951251	-4.575716496	81.15795898	1.0
[RightHandPinky4]
205	-19.75699997	0	0	0	0	0	1.0
206	-19.75699997	0	0	0	0	0	1.0
207	-19.75699997	0	0	0	0	0	1.0
208	-19.75699997	0	0	0	0	0	1.0
[RightHandRing1]
205	-91.03599548	-0.4390000105	-18.65100098	-5.975879669	-1.320495367	79.02268219	1.0
206	-91.03599548	-0.4390000105	-18.65100098	-5.975871086	-1.320491314	79.0226593	1.0
207	-91.03599548	-0.4390000105	-18.65100098	-5.975868225	-1.320512533	79.02267456	1.0
208	-91.03599548	-0.4390000105	-18.65100098	-5.975866318	-1.320488572	79.02270508	1.0
[RightHandRing2]
205	-31.54000092	0	0	-4.967088699	-4.618299007	94.17272949	1.0
206	-31.54000092	0	0	-4.96710062	-4.618302345	94.17276001	1.0
207	-31.54000092	0	0	-4.967074394	-4.61828661	94.17275238	1.0
208	-31.54000092	0	0	-4.967071533	-4.618275642	94.17274475	1.0
[RightHandRing3]
205	-29.37700081	0	0	-2.306360483	-4.00609684	59.84557724	1.0
206	-29.37700081	0	0	-2.306349516	-4.006105423	59.84556961	1.0
207	-29.37700081	0	0	-2.306349516	-4.00609827	59.8455658	1.0
208	-29.37700081	0	0	-2.306369781	-4.00609684	59.84557343	1.0
[RightHandRing4]
205	-26.47500038	0	0	0	0	0	1.0
206	-26.47500038	0	0	0	0	0	1.0
207	-26.47500038	0	0	0	0	0	1.0
208	-26.47500038	0	0	0	0	0	1.0
[RightHandMiddle1]
205	-95.32500458	0	0	-5.490189075	-4.098496437	73.57292938	1.0
206	-95.32500458	0	0	-5.490205765	-4.098500729	73.57290649	1.0
207	-95.32500458	0	0	-5.490193844	-4.098499298	73.57289124	1.0
208	-95.32500458	0	0	-5.490209103	-4.098481655	73.57293701	1.0
[RightHandMiddle2]
205	-36.98199844	0	0	-6.026582718	-4.415492058	107.5651093	1.0
206	-36.98199844	0	0	-6.026583672	-4.415501595	107.5651169	1.0
207	-36.98199844	0	0	-6.026575089	-4.415487766	107.5651016	1.0
208	-36.98199844	0	0	-6.026582718	-4.415501118	107.5651245	1.0
[RightHandMiddle3]
205	-29.50900078	0	0	-3.216310978	-4.411746502	72.19917297	1.0
206	-29.50900078	0	0	-3.216320515	-4.411758423	72.19916534	1.0
207	-29.50900078	0	0	-3.216313601	-4.411746025	72.19915771	1.0
208	-29.50900078	0	0	-3.216313124	-4.411772728	72.1991806	1.0
[RightHandMiddle4]
205	-28.3390007	0	0.0009999999311	0	0	0	1.0
206	-28.3390007	0	0.0009999999311	0	0	0	1.0
207	-28.3390007	0	0.0009999999311	0	0	0	1.0
208	-28.3390007	0	0.0009999999311	0	0	0	1.0
[RightHandIndex1]
205	-91.08300018	-5.167999744	22.60099792	-0.6033803821	-8.085658073	78.39247131	1.0
206	-91.08300018	-5.167999744	22.60099792	-0.6033778191	-8.085659027	78.39246368	1.0
207	-91.08300018	-5.167999744	22.60099792	-0.6033580303	-8.085674286	78.39245605	1.0
208	-91.08300018	-5.167999744	22.60099792	-0.6034117341	-8.085640907	78.39250183	1.0
[RightHandIndex2]
205	-36.76399994	0	0	-4.04223156	-4.593076706	82.6934433	1.0
206	-36.76399994	0	0	-4.042250633	-4.593072891	82.69343567	1.0
207	-36.76399994	0	0	-4.042231083	-4.593066216	82.69343567	1.0
208	-36.76399994	0	0	-4.04224968	-4.593087673	82.69343567	1.0
[RightHandIndex3]
205	-28.83100128	0	0	-5.12629509	-4.6039505	96.15283203	1.0
206	-28.83100128	0	0	-5.126294136	-4.603973389	96.1528244	1.0
207	-28.83100128	0	0	-5.126283646	-4.603966236	96.1528244	1.0
208	-28.83100128	0	0	-5.126289845	-4.603957176	96.1528244	1.0
[RightHandIndex4]
205	-23.92700005	0	0	0	0	0	1.0
206	-23.92700005	0	0	0	0	0	1.0
207	-23.92700005	0	0	0	0	0	1.0
208	-23.92700005	0	0	0	0	0	1.0
[RightHandThumb1]
205	-24.64799881	-15.72700024	26.82600021	-2.388237715	10.16858578	-8.287027359	1.0
206	-24.64799881	-15.72700024	26.82600021	-2.388235092	10.16858387	-8.287036896	1.0
207	-24.64799881	-15.72700024	26.82600021	-2.388222933	10.16859531	-8.287042618	1.0
208	-24.64799881	-15.72700024	26.82600021	-2.388247967	10.16857052	-8.286992073	1.0
[RightHandThumb2]
205	-32.29800034	-18.64699936	18.64699936	-2.059289932	-49.39985657	30.22304344	1.0
206	-32.29800034	-18.64699936	18.64699936	-2.059289217	-49.39984512	30.22303391	1.0
207	-32.29800034	-18.64699936	18.64699936	-2.059300423	-49.39985657	30.2230587	1.0
208	-32.29800034	-18.64699936	18.64699936	-2.059321165	-49.39985275	30.22306824	1.0
[RightHandThumb3]
205	-26.52600098	-15.31399918	15.31399918	13.49725819	-55.14929581	-27.7250042	1.0
206	-26.52600098	-15.31399918	15.31399918	13.49726582	-55.14929581	-27.72501945	1.0
207	-26.52600098	-15.31399918	15.31399918	13.49725151	-55.14929199	-27.72500801	1.0
208	-26.52600098	-15.31399918	15.31399918	13.49724865	-55.14929199	-27.72500038	1.0
[RightHandThumb4]
205	-19.54599953	-11.28499985	11.28499985	0	0	0	1.0
206	-19.54599953	-11.28499985	11.28499985	0	0	0	1.0
207	-19.54599953	-11.28499985	11.28499985	0	0	0	1.0
208	-19.54599953	-11.28499985	11.28499985	0	0	0	1.0
[LeftUpLeg]
205	82.07800293	-67.51699829	-15.99599934	-31.90795708	22.97115898	4.201361656	1.0
206	82.07800293	-67.51699829	-15.99599934	-30.39590454	25.39353371	0.17823039	1.0
207	82.07800293	-67.51699829	-15.99599934	-25.68810844	30.05250931	-2.118716955	1.0
208	82.07800293	-67.51699829	-15.99599934	-23.95715904	35.56557083	-3.491316319	1.0
[LeftLeg]
205	0	-443.7049866	2.845999956	35.49259567	4.670248032	4.803394794	1.0
206	0	-443.7049866	2.845999956	36.10722733	3.04174304	4.109872818	1.0
207	0	-443.7049866	2.845999956	35.09585571	1.783343315	3.082070589	1.0
208	0	-443.7049866	2.845999956	36.9379158	0.4765399396	1.662379742	1.0
[LeftFoot]
205	0	-444.2789917	-29.8219986	-7.992194653	4.528740883	-7.802814007	1.0
206	0	-444.2789917	-29.8219986	-18.00297546	8.886883736	-5.504907131	1.0
207	0	-444.2789917	-29.8219986	-18.22651863	8.311588287	-2.264736891	1.0
208	0	-444.2789917	-29.8219986	-10.16372776	0.1146355867	-0.3368687928	1.0
[LeftToeBase]
205	0	-87.28699493	107.1060028	-7.496997356	-7.32309104e-07	1.131371505e-06	1.0
206	0	-87.28699493	107.1060028	-0.5742972493	4.694041706e-07	-2.956129492e-06	1.0
207	0	-87.28699493	107.1060028	-3.037483692	7.468570402e-06	1.2232789e-06	1.0
208	0	-87.28699493	107.1060028	-16.53606033	-1.639349648e-05	4.097128567e-06	1.0
[RightUpLeg]
205	-82.07800293	-67.51699829	-15.99599934	-17.31705475	-11.07208157	-32.59065628	1.0
206	-82.07800293	-67.51699829	-15.99599934	-20.68115234	-2.011641502	-34.68062973	1.0
207	-82.07800293	-67.51699829	-15.99599934	-23.66627502	3.87319541	-29.78327942	1.0
208	-82.07800293	-67.51699829	-15.99599934	-24.27060509	2.055122614	-19.42697144	1.0
[RightLeg]
205	0	-443.7049866	2.861999989	22.81435394	4.233318329	3.971963644	1.0
206	0	-443.7049866	2.861999989	32.40748978	-2.188570023	0.4631850123	1.0
207	0	-443.7049866	2.861999989	47.11298752	-2.840217352	-0.7222723961	1.0
208	0	-443.7049866	2.861999989	55.75779724	-2.844810963	-0.8281128407	1.0
[RightFoot]
205	0	-444.2770081	-29.83799934	30.00685692	-3.525666237	30.56395531	1.0
206	0	-444.2770081	-29.83799934	16.74732971	-7.634573936	20.92675972	1.0
207	0	-444.2770081	-29.83799934	5.93168354	-6.583268166	11.00855064	1.0
208	0	-444.2770081	-29.83799934	1.221464992	-1.841616035	12.34310818	1.0
[RightToeBase]
205	0	-87.28699493	107.1060028	-3.110215664	9.444933653e-07	2.532717417e-06	1.0
206	0	-87.28699493	107.1060028	-2.905432224	1.308695005e-06	8.230814274e-06	1.0
207	0	-87.28699493	107.1060028	-0.3085419834	-4.898140105e-06	-1.321174568e-05	1.0
208	0	-87.28699493	107.1060028	-4.468015194	2.970215064e-06	2.974613153e-06	1.0
[EndOfFile]
